<?xml version="1.0" encoding="UTF-8" standalone="no"?>
<!-- Created with Inkscape (http://www.inkscape.org/) -->

<svg
   xmlns:dc="http://purl.org/dc/elements/1.1/"
   xmlns:cc="http://creativecommons.org/ns#"
   xmlns:rdf="http://www.w3.org/1999/02/22-rdf-syntax-ns#"
   xmlns:svg="http://www.w3.org/2000/svg"
   xmlns="http://www.w3.org/2000/svg"
   xmlns:sodipodi="http://sodipodi.sourceforge.net/DTD/sodipodi-0.dtd"
   xmlns:inkscape="http://www.inkscape.org/namespaces/inkscape"
   width="137.76144"
   height="85.139206"
   id="svg2"
   version="1.1"
   inkscape:version="0.48.4 r9939"
   sodipodi:docname="communication.svg">
  <defs
     id="defs4" />
  <sodipodi:namedview
     id="base"
     pagecolor="#ffffff"
     bordercolor="#666666"
     borderopacity="1.0"
     inkscape:pageopacity="0.0"
     inkscape:pageshadow="2"
     inkscape:zoom="2.8"
     inkscape:cx="104.50336"
     inkscape:cy="51.859243"
     inkscape:document-units="px"
     inkscape:current-layer="layer1"
     showgrid="false"
     fit-margin-top="0"
     fit-margin-left="0"
     fit-margin-right="0"
     fit-margin-bottom="0"
     inkscape:window-width="1366"
     inkscape:window-height="705"
     inkscape:window-x="-3"
     inkscape:window-y="-3"
     inkscape:window-maximized="1"
     showguides="true"
     inkscape:guide-bbox="true" />
  <metadata
     id="metadata7">
    <rdf:RDF>
      <cc:Work
         rdf:about="">
        <dc:format>image/svg+xml</dc:format>
        <dc:type
           rdf:resource="http://purl.org/dc/dcmitype/StillImage" />
        <dc:title />
      </cc:Work>
    </rdf:RDF>
  </metadata>
  <g
     inkscape:label="Layer 1"
     inkscape:groupmode="layer"
     id="layer1"
     transform="translate(-114.15739,-74.544676)">
    <path
       style="fill:#ffffff;stroke:#000000;stroke-width:2;stroke-linecap:butt;stroke-linejoin:round;stroke-miterlimit:4;stroke-opacity:1;stroke-dasharray:none;fill-opacity:1"
       d="m 128.47015,135.68284 c -3.82874,1.40649 -11.86301,3.00104 -11.86301,3.00104 0,0 6.21414,-3.5316 8.02589,-6.59186 1.81175,-3.06026 1.61937,-7.40086 1.61937,-7.40086 -6.54721,-5.15246 -11.01658,-12.61622 -11.09501,-20.35714 0,-15.899915 16.95978,-28.789344 37.88073,-28.789344 20.92094,0 37.88072,12.889429 37.88072,28.789344 0,15.89992 -16.95978,28.78935 -37.88072,28.78935 -5.23024,0 -10.2129,-0.80559 -14.74489,-2.26241 0,0 -6.39921,3.56412 -9.82308,4.82188 z"
       id="path3770"
       inkscape:connector-curvature="0"
       sodipodi:nodetypes="aczccsssca" />
    <path
       sodipodi:nodetypes="cccccc"
       inkscape:connector-curvature="0"
       id="path3833"
       d="m 157.02615,109.45705 c 0,0 2.47517,-3.33219 2.60144,-8.03572 0,-3.69834 -3.08738,-6.808037 -6.58678,-6.808037 -3.49941,0 -6.58679,3.109697 -6.58679,6.808037 0.12627,4.70353 2.60144,8.03572 2.60144,8.03572 z"
       style="color:#000000;fill:#ffff00;stroke:none;stroke-width:2;marker:none;visibility:visible;display:inline;overflow:visible;enable-background:accumulate;opacity:0.8" />
    <path
       sodipodi:nodetypes="aczccsssca"
       inkscape:connector-curvature="0"
       id="path3775"
       d="m 234.79359,151.39713 c 3.82874,1.40649 11.86301,3.00104 11.86301,3.00104 0,0 -6.21414,-3.5316 -8.02589,-6.59186 -1.81175,-3.06026 -1.61937,-7.40086 -1.61937,-7.40086 6.54721,-5.15246 11.01658,-12.61622 11.09501,-20.35714 0,-15.89992 -16.95978,-28.789348 -37.88073,-28.789348 -20.92094,0 -37.88072,12.889428 -37.88072,28.789348 0,15.89992 16.95978,28.78935 37.88072,28.78935 5.23024,0 10.2129,-0.80559 14.74489,-2.26241 0,0 6.39921,3.56412 9.82308,4.82188 z"
       style="fill:#ffffff;stroke:#000000;stroke-width:2;stroke-linecap:butt;stroke-linejoin:round;stroke-miterlimit:4;stroke-opacity:1;stroke-dasharray:none" />
    <g
       id="g3940"
       transform="translate(-1.5152288,4.2931483)">
      <g
         id="g3918">
        <path
           style="fill:none;stroke:#000000;stroke-width:1px;stroke-linecap:butt;stroke-linejoin:miter;stroke-opacity:1"
           d="m 144.55502,93.482908 -6.02763,-2.193876"
           id="path3851"
           inkscape:connector-curvature="0" />
        <path
           inkscape:connector-curvature="0"
           id="path3853"
           d="m 147.59968,89.254712 -4.29212,-4.766877"
           style="fill:none;stroke:#000000;stroke-width:1px;stroke-linecap:butt;stroke-linejoin:miter;stroke-opacity:1" />
        <path
           style="fill:none;stroke:#000000;stroke-width:1px;stroke-linecap:butt;stroke-linejoin:miter;stroke-opacity:1"
           d="m 151.99325,87.179166 -1.55179,-6.223931"
           id="path3855"
           inkscape:connector-curvature="0" />
      </g>
      <g
         transform="matrix(-1,0,0,1,308.98835,0)"
         id="g3924">
        <path
           style="color:#000000;fill:none;stroke:#000000;stroke-width:2;stroke-linejoin:round;stroke-miterlimit:4;stroke-opacity:1;marker:none;visibility:visible;display:inline;overflow:visible;enable-background:accumulate"
           d="m 151.12168,111.97335 c -0.0476,-2.50095 0.006,-4.21799 -0.61285,-6.66447 -0.64592,-2.48441 -2.47517,-3.33219 -2.60144,-8.035712 0,-3.69834 3.08738,-6.808037 6.58678,-6.808037 3.49941,0 6.58679,3.109697 6.58679,6.808037 -0.12627,4.703522 -1.95552,5.551302 -2.60144,8.035712 -0.61837,2.44648 -0.56521,4.16352 -0.61285,6.66447 l -3.3725,0 z"
           id="path3926"
           inkscape:connector-curvature="0"
           sodipodi:nodetypes="ccccccccc" />
        <path
           inkscape:connector-curvature="0"
           id="path3928"
           d="m 144.55502,93.482908 -6.02763,-2.193876"
           style="fill:none;stroke:#000000;stroke-width:1px;stroke-linecap:butt;stroke-linejoin:miter;stroke-opacity:1" />
        <path
           style="fill:none;stroke:#000000;stroke-width:1px;stroke-linecap:butt;stroke-linejoin:miter;stroke-opacity:1"
           d="m 147.59968,89.254712 -4.29212,-4.766877"
           id="path3930"
           inkscape:connector-curvature="0" />
        <path
           inkscape:connector-curvature="0"
           id="path3932"
           d="m 151.99325,87.179166 -1.55179,-6.223931"
           style="fill:none;stroke:#000000;stroke-width:1px;stroke-linecap:butt;stroke-linejoin:miter;stroke-opacity:1" />
      </g>
      <path
         inkscape:connector-curvature="0"
         id="path3934"
         d="m 157.99668,105.57673 -6.69643,0.98214"
         style="fill:none;stroke:#000000;stroke-width:1px;stroke-linecap:butt;stroke-linejoin:miter;stroke-opacity:1" />
      <path
         style="fill:none;stroke:#000000;stroke-width:1px;stroke-linecap:butt;stroke-linejoin:miter;stroke-opacity:1"
         d="m 157.99668,107.57673 -6.69643,0.98214"
         id="path3936"
         inkscape:connector-curvature="0" />
      <path
         inkscape:connector-curvature="0"
         id="path3938"
         d="m 157.99668,109.57673 -6.69643,0.98214"
         style="fill:none;stroke:#000000;stroke-width:1px;stroke-linecap:butt;stroke-linejoin:miter;stroke-opacity:1" />
    </g>
    <g
       id="g3814"
       transform="matrix(1.7314004,0,0,1.7314004,-155.29708,-88.413532)">
      <path
         sodipodi:nodetypes="czzzzzzzzzssssc"
         inkscape:connector-curvature="0"
         id="path3010"
         d="m 206.57232,119.81481 c 0,0 0.49643,0.64 1.09915,0.85873 0.60272,0.21873 1.94526,-0.0157 2.4509,0.081 0.50564,0.0968 0.51854,-0.0125 0.59907,0.21523 0.0805,0.22768 -0.16651,0.5103 -0.42191,0.69432 -0.2554,0.18402 -0.65602,0.19259 -1.04937,0.23902 -0.39335,0.0464 -0.7726,0.11344 -1.30018,0.0144 -0.52758,-0.099 -1.08517,-0.0871 -1.91589,-0.8502 -0.83072,-0.76311 -1.29727,-1.40978 -0.3142,-2.41021 0.98306,-1.00043 4.56885,0.44411 5.08929,-2e-5 0.52044,-0.44413 -0.32523,-2.30851 -0.58517,-3.37814 -0.33069,-1.36079 -0.22667,-3.3529 0.78481,-3.54024 1.13456,-0.21014 1.2945,1.68241 1.54987,3.14114 0.17225,0.98398 1.04005,2.74845 1.42438,3.42528 0.32206,0.56715 1.11607,1.60713 1.11607,1.60713"
         style="fill:none;stroke:#000000;stroke-width:0.57756716px;stroke-linecap:round;stroke-linejoin:round;stroke-opacity:1" />
      <path
         style="fill:none;stroke:#000000;stroke-width:0.57756716px;stroke-linecap:round;stroke-linejoin:round;stroke-opacity:1"
         d="m 206.57232,121.50233 c 0,0 0.49643,0.64 1.09915,0.85873 0.60272,0.21873 1.94526,-0.0157 2.4509,0.081 0.50564,0.0968 0.51854,-0.0125 0.59907,0.21523 0.0805,0.22768 -0.16651,0.5103 -0.42191,0.69432 -0.2554,0.18402 -0.65602,0.19259 -1.04937,0.23902 -0.39335,0.0464 -0.7726,0.11344 -1.30018,0.0144 -0.52758,-0.099 -1.57837,-0.24806 -2.6323,-1.45759"
         id="path3795"
         inkscape:connector-curvature="0"
         sodipodi:nodetypes="czzzzzzc" />
      <path
         sodipodi:nodetypes="czzzzzzc"
         inkscape:connector-curvature="0"
         id="path3797"
         d="m 206.57232,123.18985 c 0,0 0.49643,0.64 1.09915,0.85873 0.60272,0.21873 1.94526,-0.0157 2.4509,0.081 0.50564,0.0968 0.51854,-0.0125 0.59907,0.21523 0.0805,0.22768 -0.16651,0.5103 -0.42191,0.69432 -0.2554,0.18402 -0.65602,0.19259 -1.04937,0.23902 -0.39335,0.0464 -0.7726,0.11344 -1.30018,0.0144 -0.52758,-0.099 -1.08517,0.2254 -2.40696,-1.34127"
         style="fill:none;stroke:#000000;stroke-width:0.57756716px;stroke-linecap:round;stroke-linejoin:round;stroke-opacity:1" />
      <path
         style="fill:none;stroke:#000000;stroke-width:0.57756716px;stroke-linecap:round;stroke-linejoin:round;stroke-opacity:1"
         d="m 206.47575,124.87737 c 0,0 0.593,0.64 1.19572,0.85873 0.60272,0.21873 1.94526,-0.0157 2.4509,0.081 0.50564,0.0968 0.51854,-0.0125 0.59907,0.21523 0.0805,0.22768 -0.16651,0.5103 -0.42191,0.69432 -0.2554,0.18402 -0.65602,0.19259 -1.04937,0.23902 -0.39335,0.0464 -0.7726,0.11344 -1.30018,0.0144 -0.52758,-0.099 -1.47147,-0.28025 -2.30219,-1.04335"
         id="path3799"
         inkscape:connector-curvature="0"
         sodipodi:nodetypes="czzzzzzc" />
      <path
         sodipodi:nodetypes="cccc"
         transform="translate(114.15739,74.544676)"
         inkscape:connector-curvature="0"
         id="path3801"
         d="m 91.026785,45.273134 c 0,0 -0.02546,4.31463 0.431852,6.444061 0.708002,1.254163 2.082727,1.458648 3.320274,1.59469 1.898752,-0.01808 5.519009,-1.28219 5.519009,-1.28219"
         style="fill:none;stroke:#000000;stroke-width:0.57756716px;stroke-linecap:round;stroke-linejoin:round;stroke-opacity:1" />
    </g>
  </g>
</svg>
